<?xml version="1.0" encoding="UTF-8" standalone="no"?>
<!DOCTYPE svg PUBLIC "-//W3C//DTD SVG 1.1//EN" "http://www.w3.org/Graphics/SVG/1.1/DTD/svg11.dtd">
<svg version="1.1" xmlns="http://www.w3.org/2000/svg" xmlns:xlink="http://www.w3.org/1999/xlink" preserveAspectRatio="xMidYMid meet" viewBox="0 0 150 180" width="150" height="180"><defs><path d="M32.65 55.26C32.96 54.7 33.05 54.53 33.43 53.86C33.95 52.92 34.61 52.08 35.4 51.35C35.96 50.83 36.32 50.5 36.85 50.01C37.77 49.16 38.85 48.48 40.02 48.01C40.6 47.78 40.43 47.84 40.98 47.63C42.29 47.1 43.66 46.74 45.06 46.55C45.26 46.52 45.79 46.45 46.62 46.33C46.62 46.33 46.62 46.33 46.62 46.33C47.21 46.4 48.55 45.68 49.42 43.91C49.42 43.91 49.42 43.91 49.42 43.91C49.75 42.12 49.91 40.31 49.91 38.5C49.91 37.53 49.91 37.04 49.91 35.99C49.91 34.44 49.72 32.88 49.36 31.37C49.08 30.2 48.66 28.46 48.35 27.16C48.09 26.06 47.92 24.94 47.86 23.82C47.81 23 47.84 23.42 47.81 22.9C47.69 20.82 48.21 18.77 49.3 17.01C49.42 16.81 49.01 17.48 49.35 16.92C49.72 16.32 50.19 15.79 50.75 15.36C51.1 15.09 50.44 15.6 50.57 15.5C51.81 14.53 53.37 14.08 54.94 14.22C55.3 14.25 55.18 14.24 55.85 14.3C56.43 14.35 56.98 14.58 57.43 14.94C57.79 15.22 58.16 15.52 58.52 15.8C58.96 16.16 59.31 16.61 59.55 17.12C59.76 17.56 59.95 17.97 60.14 18.38C60.42 18.99 60.57 19.67 60.57 20.35C60.57 20.52 60.57 20.95 60.57 21.63C60.57 22.49 60.57 23.03 60.57 23.25C60.57 24.57 60.48 25.89 60.29 27.2C60.24 27.49 60.14 28.24 59.96 29.42C59.91 29.67 59.65 30.91 59.19 33.14C58.83 35.21 58.62 36.36 58.58 36.59C58.66 35.91 58.66 35.91 58.58 36.59C58.54 36.97 58.51 38.1 58.48 39.98C58.46 41.82 59.16 43.59 60.45 44.91C60.56 45.02 60 44.46 60.4 44.86C60.79 45.27 61.27 45.59 61.79 45.82C62.49 46.12 63.38 46.5 63.97 46.75C64.82 47.12 65.78 47.2 66.68 46.96C67.17 46.84 67.62 46.72 68.2 46.57C68.81 46.41 69.37 46.1 69.83 45.65C70.18 45.3 70.49 45 70.82 44.67C71.32 44.17 71.65 43.53 71.74 42.84C71.77 42.69 71.82 42.34 71.9 41.76C71.56 41.82 71.34 41.86 71.25 41.88C70.05 42.08 68.82 41.84 67.79 41.19C67.53 41.02 68.23 41.46 67.94 41.28C66.99 40.68 66.21 39.86 65.65 38.89C65.65 38.89 65.65 38.89 65.65 38.89C65.65 38.89 65.65 38.89 65.65 38.89C65.1 37.95 64.99 36.82 65.33 35.78C65.45 35.43 65.18 36.23 65.28 35.94C65.69 34.7 66.49 33.64 67.57 32.91C67.64 32.86 67.82 32.75 68.1 32.56C68.77 32.34 69.18 32.21 69.35 32.15C70.22 31.87 71.15 31.83 72.04 32.06C72.19 32.09 71.59 31.95 71.82 32C72.46 32.16 73.06 32.48 73.56 32.91C73.71 33.04 74.08 33.36 74.67 33.88C75.59 34.45 76.17 34.8 76.4 34.95C76.6 35.07 76.83 35.15 77.07 35.18C77.37 35.22 78.14 35.33 79.36 35.49C79.95 35.34 80.31 35.25 80.46 35.21C81.07 35.05 81.6 34.64 81.89 34.08C82.08 33.71 82.26 33.37 82.47 32.97C82.72 32.49 83.06 32.06 83.47 31.71C83.9 31.34 84.18 31.1 84.51 30.81C85.24 30.17 86.09 29.69 87.01 29.39C87.54 29.22 87.5 29.23 87.97 29.07C87.97 29.07 91.39 28.01 91.39 28.01C92.38 27.73 93.1 27.42 93.54 27.09C93.8 26.9 94.63 25.03 94.72 22.45C94.8 20.21 94.17 17.96 94.15 17.23C94.14 16.68 92.71 13.66 92.51 10.91C92.38 8.92 93.43 6.94 93.54 6.79C93.65 6.66 94.13 5.74 95.39 5.18C95.71 5.04 96.12 4.94 96.63 4.87C97.51 4.76 98.41 4.92 99.19 5.34C99.46 5.48 99.34 5.42 99.68 5.59C100.25 5.89 100.74 6.31 101.12 6.82C101.24 6.96 100.8 6.39 100.87 6.47C101.4 7.18 101.76 8.01 101.9 8.89C102.03 9.71 102.19 10.73 102.32 11.52C102.48 12.5 102.51 13.49 102.43 14.48C102.4 14.91 102.42 14.61 102.39 15.01C102.3 16.08 102.11 17.14 101.81 18.17C101.34 19.78 101.1 20.87 101.08 21.43C101.06 22.04 101.02 23.1 100.97 24.62C100.94 25.36 101.13 26.1 101.52 26.73C101.81 27.2 101.93 27.4 102.18 27.81C102.68 28.62 103.38 29.28 104.22 29.73C104.52 29.89 104.14 29.69 104.44 29.85C105.26 30.29 106.19 30.52 107.13 30.52C107.4 30.52 106.7 30.52 106.96 30.52C107.95 30.52 108.92 30.15 109.66 29.48C110 29.18 109.94 29.24 110.3 28.91C111.01 28.27 111.58 27.47 111.95 26.59C112.11 26.19 111.98 26.51 112.12 26.16C112.55 25.15 113.27 24.29 114.19 23.7C114.64 23.42 114.98 23.24 115.21 23.16C116.46 22.76 116.97 22.62 117.73 22.87C117.93 22.93 118.41 23.21 119.18 23.72C120.59 24.65 121.34 26.3 121.13 27.97C121.12 28.05 121.1 28.22 121.06 28.51C120.75 29.13 120.55 29.51 120.47 29.67C120.07 30.44 119.44 31.05 118.66 31.43C118.43 31.54 117.86 31.81 116.96 32.25C116.43 32.68 116.11 32.94 115.98 33.05C115.32 33.59 114.87 34.34 114.7 35.17C114.65 35.39 114.74 34.98 114.68 35.25C114.54 35.93 114.64 36.63 114.95 37.24C115.14 37.61 115.28 37.86 115.48 38.25C115.76 38.8 116.12 39.29 116.54 39.73C116.9 40.1 116.56 39.75 116.72 39.92C117.78 41.01 118.53 42.37 118.88 43.85C118.97 44.25 118.77 43.4 118.88 43.85C119.19 45.15 119.07 46.51 118.54 47.73C118.38 48.1 118.43 47.99 118.2 48.53C117.9 49.22 117.8 49.99 117.94 50.74C117.98 50.95 117.93 50.7 117.98 50.98C118.08 51.5 118.4 51.96 118.86 52.22C119.35 52.5 120.04 52.89 120.52 53.16C121.05 53.46 121.64 53.65 122.25 53.72C122.75 53.78 124.01 53.93 126.01 54.16C126.76 54.35 127.23 54.46 127.42 54.51C128.62 54.8 129.79 55.22 130.9 55.75C131.19 55.89 130.94 55.77 131.37 55.97C132.01 56.27 132.54 56.75 132.92 57.35C133.12 57.66 133.01 57.49 133.18 57.76C133.66 58.51 133.91 59.39 133.91 60.28C133.91 60.7 133.91 60.42 133.91 60.8C133.91 61.83 133.53 62.83 132.85 63.6C132.64 63.83 132.94 63.49 132.7 63.77C132.14 64.4 131.35 64.81 130.51 64.91C130.18 64.94 130.5 64.91 130.18 64.94C129.3 65.05 128.41 64.96 127.58 64.7C127.21 64.59 127.71 64.74 127.42 64.65C126.32 64.31 125.3 63.74 124.43 62.97C124.31 62.86 124 62.59 123.5 62.16C123.3 61.96 121.68 60.42 121.48 60.23C121.48 60.23 121.48 60.23 121.48 60.23C120.11 59.2 118.41 58.73 116.71 58.93C116.46 58.95 117.24 58.86 116.71 58.93C115.9 59.02 115.13 59.31 114.47 59.79C114.08 60.07 114.11 60.05 113.76 60.3C112.95 60.89 112.29 61.66 111.85 62.56C111.73 62.79 111.98 62.29 111.85 62.56C111.48 63.29 111.4 64.12 111.61 64.9C111.69 65.2 111.9 65.95 112.22 67.15C112.35 67.49 112.43 67.71 112.46 67.79C113.05 69.37 112.92 71.12 112.1 72.59C112.1 72.59 112.1 72.59 112.1 72.59C111.96 73.1 111.87 73.42 111.84 73.55C111.54 74.62 111.53 75.76 111.82 76.84C111.9 77.15 111.88 77.09 112 77.56C112.14 78.1 112.11 78.68 111.9 79.2C111.8 79.46 111.96 79.05 111.9 79.21C111.59 80 110.82 80.52 109.97 80.52C109.87 80.52 110.78 80.52 110.63 80.52C109.91 80.52 109.25 80.18 108.83 79.59C108.72 79.43 108.93 79.74 108.8 79.54C108.45 79.05 108.2 78.5 108.06 77.91C107.99 77.6 108.01 77.69 107.95 77.42C107.78 76.71 107.69 75.99 107.69 75.26C107.69 74.35 107.69 72.86 107.69 71.99C107.69 71.17 107.52 70.36 107.18 69.61C107.05 69.31 107.14 69.51 107 69.2C106.7 68.53 106.1 68.03 105.37 67.85C104.81 67.71 104.46 67.62 103.94 67.49C103.02 67.27 102.07 67.17 101.12 67.21C99.98 67.25 97.75 67.33 96.55 67.38C95.79 67.41 95.05 67.62 94.4 68C93.96 68.25 92.86 68.87 91.12 69.87C90.8 68.98 90.6 68.42 90.52 68.21C90.2 67.32 89.44 66.67 88.52 66.49C88.42 66.47 88.17 66.43 87.77 66.35C87.58 66.32 86.04 66.1 85.85 66.07C85.33 66.01 85.01 65.98 84.89 65.96C84.09 65.87 83.38 66.42 83.26 67.21C83.18 67.74 83.18 67.73 83.11 68.21C82.95 69.22 82.22 70.06 81.24 70.35C78.22 71.24 71.96 73.1 69.23 73.91C67.25 74.49 65.55 75.79 64.46 77.55C62.6 80.56 60.96 83.26 59.54 85.65C56.87 90.16 54.81 93.85 53.36 96.72C51.89 99.61 51.69 99.83 51.47 101.06C51.38 101.55 51.32 102.16 51.3 102.9C51.3 102.9 51.26 105.63 51.26 105.63C51.26 106.43 51.26 106.82 51.26 107.46C51.26 108.84 50.73 110.17 49.78 111.18C49.55 111.43 49.86 111.09 49.51 111.46C48.93 112.08 48.13 112.44 47.28 112.46C46.76 112.47 46.14 112.49 45.52 112.5C44.97 112.52 44.43 112.39 43.94 112.15C43.4 111.88 44.05 112.2 43.89 112.12C42.3 111.32 41.37 109.61 41.56 107.84C41.59 107.57 41.52 108.24 41.59 107.6C41.67 106.89 41.88 106.2 42.21 105.56C42.88 104.26 44.19 101.71 44.81 100.51C45.29 99.58 45.42 98.49 45.15 97.48C45.09 97.22 45.29 97.98 45.21 97.71C44.96 96.72 44.47 95.8 43.78 95.04C43.68 94.92 44.14 95.44 43.97 95.24C43.49 94.72 42.9 94.31 42.23 94.06C41.87 93.92 41.91 93.94 41.57 93.82C40.83 93.54 40.01 93.55 39.28 93.84C38.97 93.96 39.21 93.86 38.91 93.98C38.16 94.28 37.33 94.34 36.54 94.15C36.15 94.06 36.27 94.09 35.9 94C35.08 93.8 34.41 93.21 34.11 92.42C33.7 91.32 33.48 90.71 33.45 90.59C33.03 89.02 32.82 87.96 31.55 86.92C31.55 86.92 31.55 86.92 31.55 86.92C31.1 86.79 30.81 86.7 30.7 86.67C28.79 86.12 26.75 86.39 25.05 87.42C23.56 88.32 22.13 89.05 20.77 89.61C19.28 90.22 17.85 90.66 16.48 90.92C15.05 91.2 13.56 90.95 12.29 90.21C11.9 89.99 12.08 90.1 11.54 89.78C10.78 89.34 10.17 88.66 9.83 87.84C9.68 87.5 9.82 87.82 9.68 87.5C9.31 86.62 9.27 85.62 9.59 84.72C9.83 84.03 9.59 84.73 9.71 84.38C10.39 82.41 11.93 80.85 13.89 80.14C14.38 79.96 15.07 79.71 16.14 79.32C16.27 79.27 16.41 79.24 16.54 79.22C18.65 78.96 19.82 78.81 20.07 78.78C21.77 78.54 23.38 77.86 24.73 76.79C24.84 76.7 24.96 76.6 25.07 76.5C25.6 76.04 25.6 76.04 25.07 76.5C25.58 76.06 25.92 75.44 26.01 74.77C26.11 74.06 26.25 73.03 26.35 72.34C26.45 71.6 26.3 70.85 25.92 70.2C25.54 69.55 25.29 69.13 24.99 68.62C24.37 67.55 23.36 66.75 22.18 66.38C21.58 66.2 21.14 66.06 20.42 65.85C20.42 65.85 17.99 65.26 17.99 65.26C17.09 65.1 16.19 64.95 15.43 64.82C14.17 64.6 13.01 63.98 12.13 63.06C11.82 62.74 11.61 62.49 11.5 62.3C10.76 61.1 10.36 59.71 10.36 58.27C10.36 57.41 10.36 57.41 10.36 58.27C10.36 57.43 10.54 56.59 10.89 55.82C11.16 55.24 11.18 55.2 11.38 54.75C11.91 53.58 12.87 52.65 14.06 52.17C14.95 51.8 14.34 52.05 14.87 51.83C17.15 50.89 19.76 51.2 21.75 52.66C22.95 53.52 24.49 54.64 25.98 55.73C27.11 56.55 28.45 57.04 29.85 57.13C30.19 57.16 28.97 57.07 29.28 57.09C30.67 57.19 31.98 56.47 32.65 55.26Z" id="a3Tf75gLBu"></path><path d="M29.83 48.17C27.5 48.17 25.61 46.38 25.61 44.18C25.61 41.98 27.5 40.19 29.83 40.19C32.15 40.19 34.04 41.98 34.04 44.18C34.04 46.38 32.15 48.17 29.83 48.17Z" id="gEaSeyCH"></path><path d="M18.65 43.56C17.14 43.56 15.91 42.27 15.91 40.68C15.91 39.08 17.14 37.79 18.65 37.79C20.17 37.79 21.4 39.08 21.4 40.68C21.4 42.27 20.17 43.56 18.65 43.56Z" id="hyZEfmGaf"></path><path d="M28.42 104.5C26.09 104.5 24.2 102.7 24.2 100.49C24.2 98.28 26.09 96.47 28.42 96.47C30.74 96.47 32.63 98.28 32.63 100.49C32.63 102.7 30.74 104.5 28.42 104.5Z" id="aiA089eU"></path><path d="M33.64 112.1C31.93 112.1 30.55 110.87 30.55 109.35C30.55 107.84 31.93 106.61 33.64 106.61C35.35 106.61 36.74 107.84 36.74 109.35C36.74 110.87 35.35 112.1 33.64 112.1Z" id="bvjGvNd3A"></path><path d="M80.67 30.44C78.78 30.44 77.24 28.9 77.24 27.01C77.24 25.12 78.78 23.58 80.67 23.58C82.56 23.58 84.1 25.12 84.1 27.01C84.1 28.9 82.56 30.44 80.67 30.44Z" id="c2vMcgCb4"></path><path d="M72.45 26.13C71.32 26.13 70.39 25.24 70.39 24.14C70.39 23.04 71.32 22.15 72.45 22.15C73.59 22.15 74.51 23.04 74.51 24.14C74.51 25.24 73.59 26.13 72.45 26.13Z" id="aLliQD1Fr"></path><path d="M129.11 38.63C127.66 38.63 126.48 37.34 126.48 35.76C126.48 34.18 127.66 32.89 129.11 32.89C130.56 32.89 131.74 34.18 131.74 35.76C131.74 37.34 130.56 38.63 129.11 38.63Z" id="a10ZvZ7NJx"></path><path d="M66.33 52.4C66.8 52.86 66.86 52.91 67.42 53.45C68.25 54.25 68.82 55.29 69.05 56.43C69.21 57.26 69.39 58.11 69.56 58.97C69.76 60.03 70.12 61.05 70.6 62.01C70.95 62.72 71.27 63.37 71.63 64.08C72.11 65.04 72.94 65.8 73.95 66.18C74.47 66.38 74.32 66.33 74.81 66.51C75.82 66.9 76.96 66.52 77.53 65.6C77.73 65.27 77.7 65.33 77.99 64.86C78.35 64.29 78.48 63.6 78.35 62.93C78.28 62.55 78.2 62.17 78.12 61.71C78.03 61.27 77.88 60.84 77.67 60.44C77.44 60.03 77.15 59.49 76.95 59.1C76.69 58.62 76.61 58.06 76.74 57.53C76.81 57.24 76.78 57.38 76.84 57.13C77 56.44 77.38 55.82 77.93 55.37C78.1 55.23 77.94 55.37 78.15 55.19C78.55 54.86 79.05 54.7 79.55 54.73C79.93 54.74 80.46 54.77 80.89 54.78C81.26 54.81 81.61 54.97 81.86 55.23C82.16 55.56 82.69 56.11 82.99 56.43C83.25 56.71 83.44 57.04 83.55 57.4C83.6 57.57 83.74 58.01 83.96 58.71C83.96 59.16 83.96 59.45 83.96 59.56C83.96 59.56 83.88 61.22 83.88 61.22C83.76 62.54 83.91 63.5 84.35 64.12C84.91 64.92 86 65.59 87.61 66.14C88.83 66.28 89.58 66.37 89.89 66.41C90.78 66.52 91.69 66.37 92.5 65.98C92.93 65.78 93.33 65.59 93.85 65.34C94.36 65.09 94.78 64.69 95.04 64.19C95.38 63.56 95.52 63.31 95.74 62.89C96.39 61.68 96.76 60.33 96.82 58.95C96.85 58.39 96.88 57.73 96.91 56.9C96.93 56.38 97.01 55.87 97.15 55.38C97.38 54.55 97.87 52.81 98.1 51.98C98.24 51.49 98.5 51.04 98.85 50.66C99.15 50.36 99.5 50 99.8 49.68C100.14 49.34 100.53 49.04 100.95 48.81C101.37 48.58 102.06 48.19 102.5 47.96C102.84 47.77 103.21 47.66 103.59 47.64C104.02 47.61 104.79 47.57 105.24 47.54C105.57 47.52 105.9 47.55 106.22 47.63C106.68 47.74 107.1 47.84 107.44 47.92C108.13 48.09 108.71 48.54 109.04 49.17C109.16 49.38 109.15 49.37 109.31 49.67C109.51 50.04 109.66 50.43 109.76 50.84C109.84 51.19 109.83 51.12 109.88 51.33C110.09 52.17 110.1 53.04 109.93 53.88C109.9 54.01 109.84 54.36 109.72 54.91C109.22 55.72 108.91 56.23 108.78 56.44C108.78 56.44 108.22 57.25 108.22 57.25C107.83 57.72 106.88 58.9 105.35 60.79C104.49 62.26 103.95 63.17 103.73 63.54C103.35 64.18 103.15 64.92 103.15 65.67C103.15 66.31 103.15 67.12 103.15 67.77C103.15 68.46 103.49 69.11 104.07 69.49C104.33 69.66 104.4 69.71 104.71 69.92C105.12 70.2 105.62 70.31 106.11 70.24C106.64 70.16 107.38 70.05 107.89 69.97C108.44 69.89 108.91 69.52 109.12 68.99C109.33 68.45 109.65 67.66 109.87 67.12C110.08 66.57 110.4 66.06 110.81 65.63C110.91 65.52 111.17 65.25 111.58 64.82C111.95 64.6 112.18 64.46 112.27 64.4C112.99 63.97 113.83 63.79 114.67 63.88C114.77 63.89 115.03 63.92 115.44 63.97C115.79 64.08 116.01 64.16 116.11 64.18C116.76 64.4 117.31 64.88 117.61 65.5C117.66 65.61 117.78 65.87 117.99 66.28C118.03 66.63 118.06 66.84 118.07 66.93C118.19 67.8 117.97 68.67 117.44 69.37C117.17 69.74 116.87 70.15 116.52 70.61C116.24 70.99 115.89 71.31 115.49 71.56C114.89 71.93 113.68 72.67 113.08 73.04C112.69 73.28 112.43 73.68 112.38 74.13C112.3 74.73 112.19 75.67 112.12 76.24C112.04 76.81 112.13 77.4 112.36 77.94C112.57 78.4 112.99 79.35 113.23 79.91C113.33 80.14 113.45 80.36 113.59 80.56C113.96 81.1 114.7 82.19 115.03 82.68C115.29 83.07 115.71 83.31 116.16 83.35C117.05 83.43 118.28 83.54 118.98 83.6C120.04 83.7 121.09 83.5 122.04 83.04C122.62 82.75 123.24 82.45 123.91 82.12C124.6 81.78 125.25 81.37 125.86 80.9C126.52 80.39 127.42 79.7 128.05 79.22C128.75 78.67 129.69 78.52 130.53 78.81C130.91 78.93 131.16 79.02 131.65 79.19C132.15 79.36 132.61 79.64 133 80.01C133.15 80.16 133.53 80.54 134.15 81.14C134.44 81.7 134.62 82.06 134.7 82.2C134.99 82.77 135.03 83.44 134.79 84.04C134.57 84.59 134.35 85.15 134.15 85.66C133.85 86.41 133.37 87.08 132.75 87.59C132.39 87.9 132.2 88.06 131.82 88.37C131.27 88.84 130.55 89.06 129.82 88.99C129.06 88.91 127.62 88.76 126.79 88.68C126.27 88.62 125.75 88.62 125.24 88.66C124.2 88.75 121.7 88.96 120.62 89.05C120.25 89.08 119.88 89.21 119.56 89.41C118.95 89.8 117.86 90.5 117.31 90.85C116.79 91.18 116.4 91.7 116.21 92.29C116.06 92.8 115.92 93.28 115.77 93.75C115.55 94.46 115.58 95.21 115.85 95.9C116.02 96.33 116.11 96.58 116.28 97.02C116.54 97.68 117.06 98.21 117.73 98.48C118.16 98.64 118.6 98.82 119.08 99C119.6 99.21 120.16 99.29 120.72 99.25C121.21 99.22 121.88 99.17 122.38 99.13C122.9 99.09 123.41 99.11 123.92 99.2C124.36 99.27 125 99.38 125.46 99.46C125.89 99.53 126.28 99.74 126.59 100.06C126.8 100.28 126.99 100.47 127.2 100.7C127.49 101 127.7 101.36 127.82 101.76C127.89 102 127.95 102.2 128.02 102.46C128.12 102.78 128.1 103.12 127.99 103.43C127.81 103.9 127.53 104.67 127.37 105.09C127.21 105.52 126.88 105.85 126.46 106.02C126.06 106.18 125.64 106.36 125.27 106.51C124.74 106.72 124.15 106.69 123.65 106.43C123.18 106.19 122.33 105.75 121.8 105.47C121.47 105.3 121.17 105.09 120.89 104.86C120.53 104.56 119.93 104.06 119.59 103.77C119.26 103.5 118.86 103.32 118.43 103.26C117.97 103.2 117.22 103.1 116.75 103.04C116.34 102.98 115.92 103.11 115.6 103.39C115.38 103.58 115.26 103.68 115.06 103.86C114.73 104.15 114.59 104.61 114.72 105.03C114.89 105.6 115.18 106.55 115.35 107.1C115.5 107.58 115.86 107.95 116.33 108.12C117.33 108.46 119.65 109.27 120.67 109.63C121.1 109.78 121.49 109.99 121.85 110.27C122.14 110.5 122.32 110.64 122.58 110.83C123.06 111.21 123.34 111.78 123.34 112.4C123.34 112.82 123.34 113.51 123.34 114.03C123.34 114.36 123.3 114.7 123.21 115.03C123.09 115.45 123.06 115.58 122.99 115.84C122.75 116.68 122.22 117.4 121.48 117.87C121.26 118.01 121.47 117.87 121.19 118.05C120.65 118.39 120.01 118.5 119.4 118.36C118.96 118.26 118.26 118.09 117.73 117.97C117.38 117.89 117.06 117.72 116.79 117.49C116.45 117.18 116.11 116.87 115.83 116.63C115.35 116.2 114.99 115.65 114.8 115.03C114.69 114.69 114.68 114.66 114.57 114.34C114.37 113.69 113.98 113.11 113.44 112.69C113.25 112.53 113.58 112.8 113.41 112.66C112.9 112.26 112.16 112.38 111.8 112.92C111.62 113.19 111.46 113.43 111.21 113.82C111.01 114.12 110.88 114.46 110.81 114.81C110.69 115.47 110.47 116.64 110.36 117.23C110.25 117.79 109.96 118.3 109.52 118.68C108.89 119.22 108.44 119.59 108.16 119.8C106.49 121.05 105.92 121.48 106.46 121.08C105.94 121.47 105.56 122.03 105.4 122.67C105.28 123.12 105.13 123.71 105 124.21C104.87 124.67 104.84 125.16 104.88 125.64C104.93 126.15 105 126.95 105.06 127.46C105.1 127.96 105.06 128.46 104.95 128.94C104.77 129.67 104.4 131.17 104.22 131.91C104.11 132.35 103.87 132.76 103.54 133.07C103.19 133.41 102.89 133.69 102.59 133.96C102.09 134.45 101.37 134.63 100.69 134.45C100.21 134.33 99.6 134.17 99.05 134.02C98.56 133.9 98.05 133.83 97.55 133.83C97.2 133.83 97 133.83 96.68 133.83C96.11 133.83 95.57 134.04 95.16 134.43C94.95 134.62 94.72 134.84 94.44 135.09C94.24 135.29 94.08 135.53 93.98 135.79C93.63 136.74 92.87 138.76 92.56 139.6C92.33 140.22 92.16 140.85 92.06 141.5C91.95 142.17 91.69 143.83 91.26 146.5C91.2 147.02 90.92 149.61 90.42 154.27C90.42 158.29 90.42 160.52 90.42 160.97C90.71 163.41 90.9 164.93 90.97 165.55C91 165.84 91.06 166.13 91.14 166.42C91.36 167.14 91.72 168.38 91.9 168.97C92.11 169.69 92.18 170.43 92.1 171.17C92.02 171.86 91.92 172.87 91.84 173.57C91.78 174.24 91.52 174.88 91.12 175.42C90.81 175.83 90.45 176.32 90.12 176.75C89.78 177.2 89.25 177.47 88.69 177.47C88.35 177.47 88.13 177.47 87.77 177.47C87.24 177.47 86.72 177.31 86.27 177.02C86 176.85 85.97 176.83 85.72 176.67C85.2 176.33 84.79 175.85 84.55 175.27C84.38 174.87 84.2 174.44 84.02 174.02C83.81 173.54 83.74 173.01 83.8 172.48C83.84 172.04 83.86 171.9 83.9 171.55C83.9 171.55 84.3 169.01 84.3 169.01C84.42 168.41 84.58 167.65 84.71 167C84.85 166.33 84.93 165.65 84.96 164.96C84.98 164.27 85.05 162.54 85.14 159.77C85.15 159.33 85.2 157.14 85.28 153.2C84.34 146.89 83.81 143.38 83.71 142.68C83.11 140.31 82.74 138.82 82.59 138.23C82.47 137.77 82.27 137.34 82 136.96C81.72 136.57 81.3 135.98 81.02 135.59C80.76 135.23 80.38 134.98 79.94 134.9C79.77 134.87 79.75 134.87 79.53 134.83C79.24 134.77 78.94 134.87 78.73 135.08C78.46 135.34 78.33 135.48 78.15 135.66C77.66 136.14 77.38 136.8 77.36 137.48C77.35 138 77.31 139.3 77.25 141.36C77.56 143.31 77.75 144.53 77.83 145.01C77.93 145.66 77.78 146.32 77.39 146.85C77.17 147.16 77.04 147.34 76.8 147.67C76.47 148.13 75.91 148.38 75.34 148.31C75.11 148.28 75.45 148.32 75.25 148.3C74.57 148.23 73.98 147.81 73.68 147.2C73.49 146.82 73.25 146.34 73.02 145.88C72.84 145.51 72.78 145.09 72.86 144.68C72.94 144.21 73 143.92 73.06 143.57C73.06 143.57 73.41 141 73.41 141C73.44 140.65 73.44 140.67 73.48 140.26C73.53 139.57 73.47 138.87 73.27 138.2C73.16 137.84 72.99 137.26 72.85 136.77C72.78 136.54 72.66 136.32 72.49 136.14C72.21 135.82 71.78 135.33 71.54 135.05C71.24 134.72 70.99 134.34 70.81 133.92C70.7 133.66 70.66 133.59 70.56 133.35C70.34 132.85 70.23 132.31 70.23 131.76C70.23 131.43 70.23 130.59 70.23 129.24C70.22 128.89 70.16 126.06 70.15 125.7C70.05 124.58 69.98 123.88 69.96 123.6C69.9 122.98 69.73 122.38 69.46 121.83C69.2 121.33 68.78 120.49 68.51 119.95C68.34 119.61 67.92 119.48 67.59 119.67C67.38 119.79 67.38 119.79 67.17 119.91C66.76 120.14 66.47 120.54 66.38 121.01C66.33 121.22 66.33 121.25 66.28 121.49C66.2 121.87 66.05 122.23 65.83 122.55C65.59 122.91 65.35 123.26 65.15 123.55C64.8 124.07 64.3 124.46 63.73 124.69C63.47 124.78 63.59 124.74 63.34 124.84C62.77 125.05 62.15 125.04 61.6 124.8C61.39 124.71 61.5 124.75 61.26 124.65C60.79 124.45 60.36 124.16 59.98 123.82C59.74 123.58 59.58 123.44 59.34 123.21C58.97 122.87 58.79 122.37 58.85 121.88C58.91 121.46 58.98 120.87 59.04 120.42C59.09 120.01 59.24 119.62 59.48 119.29C59.69 118.98 60.05 118.48 60.28 118.14C60.46 117.89 60.66 117.66 60.89 117.45C61.2 117.15 61.72 116.67 62.01 116.4C62.31 116.11 62.55 115.78 62.72 115.41C62.9 115 63.21 114.32 63.4 113.91C63.57 113.54 63.58 113.13 63.45 112.76C63.33 112.39 63.17 111.96 63.05 111.61C62.9 111.2 62.56 110.9 62.13 110.81C61.82 110.74 61.59 110.69 61.28 110.63C60.82 110.53 60.33 110.64 59.96 110.94C59.72 111.14 59.56 111.26 59.32 111.46C58.95 111.75 58.65 112.13 58.47 112.57C58.27 113.03 57.88 113.94 57.66 114.45C57.55 114.71 57.35 114.91 57.11 115.04C56.69 115.26 56.07 115.58 55.72 115.77C55.27 116.01 54.75 116.09 54.25 116.01C53.79 115.93 53.04 115.8 52.54 115.72C52.15 115.65 51.8 115.46 51.53 115.17C51.25 114.88 50.94 114.55 50.69 114.28C50.34 113.91 50.15 113.42 50.15 112.91C50.15 112.61 50.15 112.46 50.15 112.15C50.15 111.68 50.27 111.21 50.5 110.8C50.66 110.51 50.75 110.37 50.9 110.1C51.18 109.61 51.59 109.21 52.08 108.94C52.21 108.88 52.52 108.71 53.02 108.44C53.27 108.3 55.28 107.2 55.53 107.06C56.56 106.34 57.2 105.89 57.46 105.71C57.92 105.38 58.32 104.97 58.63 104.5C58.82 104.21 58.94 104.04 59.13 103.75C59.42 103.31 59.53 102.77 59.43 102.25C59.37 101.93 59.32 101.73 59.26 101.4C59.16 100.92 58.95 100.47 58.64 100.1C58.37 99.78 58.18 99.56 57.95 99.28C57.55 98.8 56.96 98.52 56.33 98.52C56.11 98.52 55.57 98.52 54.69 98.52C53.58 98.67 52.88 98.77 52.6 98.8C51.85 98.9 51.14 99.18 50.52 99.6C50.31 99.75 49.78 100.1 48.95 100.67C48.13 101.18 47.62 101.5 47.41 101.62C46.78 102.02 46.05 102.25 45.3 102.31C44.92 102.34 44.52 102.37 44.04 102.4C43.59 102.43 43.15 102.38 42.74 102.25C42.28 102.1 41.67 101.9 41.24 101.76C40.72 101.59 40.25 101.32 39.84 100.96C39.56 100.71 39.25 100.44 38.95 100.17C38.61 99.87 38.33 99.5 38.14 99.09C37.98 98.76 37.91 98.6 37.78 98.32C37.5 97.75 37.43 97.11 37.57 96.49C37.65 96.11 37.67 96.05 37.75 95.7C37.91 94.96 38.32 94.3 38.91 93.83C39.25 93.55 39.52 93.32 39.9 93.02C40.36 92.64 40.91 92.39 41.5 92.29C42.15 92.17 43.21 91.98 43.86 91.86C44.46 91.76 45.07 91.75 45.67 91.84C46.04 91.9 46.96 92.03 48.43 92.26C48.73 92.28 51.16 92.48 51.46 92.5C52.7 92.41 53.47 92.35 53.78 92.33C54.37 92.28 54.92 92.03 55.34 91.62C55.52 91.44 55.73 91.24 55.99 90.98C56.15 90.83 56.26 90.62 56.29 90.4C56.36 90.04 56.41 89.72 56.45 89.46C56.55 88.91 56.44 88.33 56.15 87.85C56.03 87.64 56 87.6 55.86 87.35C55.65 87 55.3 86.75 54.9 86.66C54.6 86.6 54.32 86.54 54.03 86.47C53.6 86.37 53.16 86.38 52.73 86.49C52.48 86.55 52.41 86.57 52.17 86.63C51.7 86.74 51.22 86.76 50.75 86.67C50.39 86.6 49.97 86.52 49.6 86.45C49.19 86.37 48.82 86.13 48.59 85.77C48.4 85.48 48.27 85.27 48.1 85.01C47.8 84.55 47.71 84 47.83 83.47C47.89 83.23 47.92 83.11 47.98 82.82C48.07 82.45 48.24 82.11 48.48 81.82C48.91 81.31 49.39 81 49.93 80.88C50.64 80.72 51.61 80.81 52.84 81.14C53.5 81.66 53.91 81.99 54.08 82.13C54.37 82.36 54.71 82.54 55.07 82.65C55.38 82.74 55.76 82.85 56.07 82.94C56.41 83.04 56.78 83 57.09 82.83C57.3 82.72 57.18 82.79 57.32 82.71C57.83 82.43 58.16 81.9 58.16 81.31C58.16 81.12 58.16 81.45 58.16 81.24C58.16 80.68 57.91 80.13 57.49 79.75C57.22 79.51 56.85 79.2 56.53 78.91C56.26 78.67 55.96 78.48 55.63 78.34C55.38 78.22 54.75 77.94 53.74 77.48C53.29 77.4 49.75 76.76 49.31 76.68C47.66 76.57 46.64 76.5 46.22 76.47C45.55 76.43 44.88 76.27 44.26 76.01C43.97 75.88 43.94 75.87 43.62 75.74C43.1 75.52 42.63 75.19 42.24 74.78C42.03 74.55 41.89 74.41 41.66 74.17C41.35 73.84 41.1 73.45 40.92 73.03C40.83 72.81 40.71 72.54 40.59 72.25C40.5 72.04 40.46 71.81 40.46 71.58C40.46 71.38 40.46 71.01 40.46 70.78C40.46 70.64 40.47 70.49 40.5 70.35C40.58 69.93 40.75 69.11 40.82 68.74C40.88 68.44 41.02 68.16 41.23 67.93C41.36 67.77 41.72 67.37 42.28 66.73C43.22 66.12 43.8 65.74 44.04 65.59C44.32 65.4 44.64 65.28 44.98 65.23C45.61 65.13 46.5 65 47 64.93C47.73 64.82 48.47 64.91 49.15 65.19C49.63 65.4 50.84 65.91 52.77 66.73C52.94 66.91 53.8 67.78 55.34 69.36C56.63 70.9 57.34 71.76 57.49 71.93C58.28 73.04 58.78 73.73 58.97 74C59.37 74.55 59.96 74.93 60.63 75.05C61.07 75.13 61.77 75.26 62.32 75.37C62.65 75.42 62.98 75.44 63.32 75.41C63.76 75.37 64.1 75.34 64.42 75.31C65.1 75.25 65.7 74.83 65.97 74.2C66.2 73.68 66.51 72.98 66.75 72.42C66.99 71.89 67.05 71.29 66.93 70.71C66.78 70 66.58 69.09 66.44 68.47C66.26 67.63 65.8 66.89 65.14 66.36C64.76 66.06 63.82 65.31 62.32 64.12C60.73 62.85 59.74 62.06 59.34 61.74C58.56 61.12 57.92 60.33 57.48 59.45C56.85 58.22 56.56 57.36 56.6 56.86C56.66 56.06 57.09 54.98 57.89 53.62C58.66 52.3 60 51.4 61.52 51.19C62.14 51.1 61.63 51.17 62.26 51.09C63.74 50.88 65.24 51.36 66.33 52.4Z" id="aVNexXOkS"></path><path d="M132.88 118.92C131.19 118.92 129.81 117.51 129.81 115.76C129.81 114.02 131.19 112.6 132.88 112.6C134.57 112.6 135.95 114.02 135.95 115.76C135.95 117.51 134.57 118.92 132.88 118.92Z" id="dWSGK3P8H"></path><path d="M117.5 139.57C115.61 139.57 114.09 137.93 114.09 135.93C114.09 133.92 115.61 132.29 117.5 132.29C119.38 132.29 120.91 133.92 120.91 135.93C120.91 137.93 119.38 139.57 117.5 139.57Z" id="aqn72AIZB"></path><path d="M87.03 58.03C85.9 58.03 84.97 57.13 84.97 56.04C84.97 54.94 85.9 54.05 87.03 54.05C88.17 54.05 89.09 54.94 89.09 56.04C89.09 57.13 88.17 58.03 87.03 58.03Z" id="emABk6L60"></path><path d="M125 73.85C123.62 73.85 122.5 72.63 122.5 71.12C122.5 69.62 123.62 68.39 125 68.39C126.38 68.39 127.5 69.62 127.5 71.12C127.5 72.63 126.38 73.85 125 73.85Z" id="btfiUlXOf"></path><path d="M39.77 92.94C38.68 92.94 37.8 92.12 37.8 91.12C37.8 90.12 38.68 89.3 39.77 89.3C40.87 89.3 41.76 90.12 41.76 91.12C41.76 92.12 40.87 92.94 39.77 92.94Z" id="c20HYNx58S"></path><path d="M60.29 139.57C58.85 139.57 57.68 138.39 57.68 136.95C57.68 135.51 58.85 134.34 60.29 134.34C61.73 134.34 62.91 135.51 62.91 136.95C62.91 138.39 61.73 139.57 60.29 139.57Z" id="a26G5BQRNu"></path><path d="M109.31 132.29C108.56 132.29 107.95 131.68 107.95 130.92C107.95 130.17 108.56 129.56 109.31 129.56C110.06 129.56 110.67 130.17 110.67 130.92C110.67 131.68 110.06 132.29 109.31 132.29Z" id="c2tPsYvrd"></path><path d="M34.01 92.94C33.25 92.94 32.63 92.33 32.63 91.58C32.63 90.82 33.25 90.21 34.01 90.21C34.77 90.21 35.38 90.82 35.38 91.58C35.38 92.33 34.77 92.94 34.01 92.94Z" id="a2smtejC4B"></path></defs><g><g><g><use xlink:href="#a3Tf75gLBu" opacity="1" fill="#010101" fill-opacity="1"></use><g><use xlink:href="#a3Tf75gLBu" opacity="1" fill-opacity="0" stroke="#000000" stroke-width="1" stroke-opacity="0"></use></g></g><g><use xlink:href="#gEaSeyCH" opacity="1" fill="#010101" fill-opacity="1"></use><g><use xlink:href="#gEaSeyCH" opacity="1" fill-opacity="0" stroke="#000000" stroke-width="1" stroke-opacity="0"></use></g></g><g><use xlink:href="#hyZEfmGaf" opacity="1" fill="#010101" fill-opacity="1"></use><g><use xlink:href="#hyZEfmGaf" opacity="1" fill-opacity="0" stroke="#000000" stroke-width="1" stroke-opacity="0"></use></g></g><g><use xlink:href="#aiA089eU" opacity="1" fill="#010101" fill-opacity="1"></use><g><use xlink:href="#aiA089eU" opacity="1" fill-opacity="0" stroke="#000000" stroke-width="1" stroke-opacity="0"></use></g></g><g><use xlink:href="#bvjGvNd3A" opacity="1" fill="#010101" fill-opacity="1"></use><g><use xlink:href="#bvjGvNd3A" opacity="1" fill-opacity="0" stroke="#000000" stroke-width="1" stroke-opacity="0"></use></g></g><g><use xlink:href="#c2vMcgCb4" opacity="1" fill="#010101" fill-opacity="1"></use><g><use xlink:href="#c2vMcgCb4" opacity="1" fill-opacity="0" stroke="#000000" stroke-width="1" stroke-opacity="0"></use></g></g><g><use xlink:href="#aLliQD1Fr" opacity="1" fill="#010101" fill-opacity="1"></use><g><use xlink:href="#aLliQD1Fr" opacity="1" fill-opacity="0" stroke="#000000" stroke-width="1" stroke-opacity="0"></use></g></g><g><use xlink:href="#a10ZvZ7NJx" opacity="1" fill="#010101" fill-opacity="1"></use><g><use xlink:href="#a10ZvZ7NJx" opacity="1" fill-opacity="0" stroke="#000000" stroke-width="1" stroke-opacity="0"></use></g></g><g><use xlink:href="#aVNexXOkS" opacity="1" fill="#a0a0a0" fill-opacity="1"></use><g><use xlink:href="#aVNexXOkS" opacity="1" fill-opacity="0" stroke="#000000" stroke-width="1" stroke-opacity="0"></use></g></g><g><use xlink:href="#dWSGK3P8H" opacity="1" fill="#a0a0a0" fill-opacity="1"></use><g><use xlink:href="#dWSGK3P8H" opacity="1" fill-opacity="0" stroke="#000000" stroke-width="1" stroke-opacity="0"></use></g></g><g><use xlink:href="#aqn72AIZB" opacity="1" fill="#a0a0a0" fill-opacity="1"></use><g><use xlink:href="#aqn72AIZB" opacity="1" fill-opacity="0" stroke="#000000" stroke-width="1" stroke-opacity="0"></use></g></g><g><use xlink:href="#emABk6L60" opacity="1" fill="#a0a0a0" fill-opacity="1"></use><g><use xlink:href="#emABk6L60" opacity="1" fill-opacity="0" stroke="#000000" stroke-width="1" stroke-opacity="0"></use></g></g><g><use xlink:href="#btfiUlXOf" opacity="1" fill="#a0a0a0" fill-opacity="1"></use><g><use xlink:href="#btfiUlXOf" opacity="1" fill-opacity="0" stroke="#000000" stroke-width="1" stroke-opacity="0"></use></g></g><g><use xlink:href="#c20HYNx58S" opacity="1" fill="#a0a0a0" fill-opacity="1"></use><g><use xlink:href="#c20HYNx58S" opacity="1" fill-opacity="0" stroke="#000000" stroke-width="1" stroke-opacity="0"></use></g></g><g><use xlink:href="#a26G5BQRNu" opacity="1" fill="#a0a0a0" fill-opacity="1"></use><g><use xlink:href="#a26G5BQRNu" opacity="1" fill-opacity="0" stroke="#000000" stroke-width="1" stroke-opacity="0"></use></g></g><g><use xlink:href="#c2tPsYvrd" opacity="1" fill="#a0a0a0" fill-opacity="1"></use><g><use xlink:href="#c2tPsYvrd" opacity="1" fill-opacity="0" stroke="#000000" stroke-width="1" stroke-opacity="0"></use></g></g><g><use xlink:href="#a2smtejC4B" opacity="1" fill="#a0a0a0" fill-opacity="1"></use><g><use xlink:href="#a2smtejC4B" opacity="1" fill-opacity="0" stroke="#000000" stroke-width="1" stroke-opacity="0"></use></g></g></g></g></svg>
