<?xml version="1.0" encoding="UTF-8" standalone="no"?>
<!DOCTYPE svg PUBLIC "-//W3C//DTD SVG 1.1//EN" "http://www.w3.org/Graphics/SVG/1.1/DTD/svg11.dtd">
<svg version="1.1" xmlns="http://www.w3.org/2000/svg" xmlns:xlink="http://www.w3.org/1999/xlink" preserveAspectRatio="xMidYMid meet" viewBox="0.4296840451454358 0.6787810391411138 112.10919470808416 111.91962507483493" width="108.11" height="107.92"><defs><path d="M1.43 74.33C1.43 45.7 32.82 41.7 42.78 30.78C48.06 25.01 48.78 14.23 49.17 11.31C49.62 8.33 50.66 1.68 55.42 1.68C60.3 1.68 61.35 8.33 61.8 11.31C62.19 14.23 62.91 25.01 68.18 30.78C78.15 41.7 109.54 45.7 109.54 74.33C109.54 98.54 80.69 109.6 55.42 109.6C30.28 109.6 1.43 98.54 1.43 74.33Z" id="a49NB8p8tU"></path><path d="M44.58 79.97C49.46 79.97 53.3 75.9 53.3 71.02C53.3 66 49.46 61.99 44.58 61.99C39.89 61.99 36.05 66 36.05 71.02C36.05 75.9 39.89 79.97 44.58 79.97Z" id="ie7A8eQN"></path><path d="M44.71 74.61C42.75 74.61 41.26 72.98 41.26 71.02C41.26 68.98 42.75 67.35 44.71 67.35C46.6 67.35 48.09 68.98 48.09 71.02C48.09 72.98 46.6 74.61 44.71 74.61Z" id="eUH1FPpq"></path><path d="M78.31 87.43C79.35 86.14 79.16 84.31 77.99 83.16C76.75 82.07 74.99 82.14 73.88 83.43C73.69 83.77 67.44 90.42 56.24 90.14C45.1 90.42 38.85 83.77 38.59 83.43C37.54 82.14 35.72 82.07 34.48 83.16C33.31 84.31 33.18 86.14 34.22 87.43C34.48 87.77 42.36 96.52 56.24 96.25C70.17 96.52 77.99 87.77 78.31 87.43Z" id="bhZt8AYZV"></path><path d="M67.05 79.97C71.87 79.97 75.71 75.97 75.71 71.02C75.71 66.06 71.87 61.99 67.05 61.99C62.29 61.99 58.45 66.06 58.45 71.02C58.45 75.97 62.29 79.97 67.05 79.97Z" id="d3P9HlPD9m"></path><path d="M67.18 74.61C65.16 74.61 63.66 72.98 63.66 71.02C63.66 68.98 65.16 67.42 67.18 67.42C69 67.42 70.5 68.98 70.5 71.02C70.5 72.98 69 74.61 67.18 74.61Z" id="c9rmg2k0gR"></path><path d="M78.31 87.43C79.35 86.14 79.16 84.31 77.99 83.16C76.75 82.07 74.99 82.14 73.88 83.43C73.69 83.77 67.44 90.42 56.24 90.14C45.1 90.42 38.85 83.77 38.59 83.43C37.54 82.14 35.72 82.07 34.48 83.16C33.31 84.31 33.18 86.14 34.22 87.43C34.48 87.77 42.36 96.52 56.24 96.25C70.17 96.52 77.99 87.77 78.31 87.43Z" id="h14EKeRrRW"></path></defs><g><g><use xlink:href="#a49NB8p8tU" opacity="1" fill="#0096d9" fill-opacity="1"></use><g><use xlink:href="#a49NB8p8tU" opacity="1" fill-opacity="0" stroke="#000000" stroke-width="1" stroke-opacity="0"></use></g></g><g><use xlink:href="#ie7A8eQN" opacity="1" fill="#ffffff" fill-opacity="1"></use><g><use xlink:href="#ie7A8eQN" opacity="1" fill-opacity="0" stroke="#000000" stroke-width="1" stroke-opacity="0"></use></g></g><g><use xlink:href="#eUH1FPpq" opacity="1" fill="#000000" fill-opacity="1"></use><g><use xlink:href="#eUH1FPpq" opacity="1" fill-opacity="0" stroke="#000000" stroke-width="1" stroke-opacity="0"></use></g></g><g><use xlink:href="#bhZt8AYZV" opacity="1" fill="#e5004a" fill-opacity="1"></use><g><use xlink:href="#bhZt8AYZV" opacity="1" fill-opacity="0" stroke="#000000" stroke-width="1" stroke-opacity="0"></use></g></g><g><use xlink:href="#d3P9HlPD9m" opacity="1" fill="#ffffff" fill-opacity="1"></use><g><use xlink:href="#d3P9HlPD9m" opacity="1" fill-opacity="0" stroke="#000000" stroke-width="1" stroke-opacity="0"></use></g></g><g><use xlink:href="#c9rmg2k0gR" opacity="1" fill="#000000" fill-opacity="1"></use><g><use xlink:href="#c9rmg2k0gR" opacity="1" fill-opacity="0" stroke="#000000" stroke-width="1" stroke-opacity="0"></use></g></g><g><use xlink:href="#h14EKeRrRW" opacity="1" fill="#e5004a" fill-opacity="1"></use><g><use xlink:href="#h14EKeRrRW" opacity="1" fill-opacity="0" stroke="#000000" stroke-width="1" stroke-opacity="0"></use></g></g></g></svg>