<?xml version="1.0" encoding="UTF-8" standalone="no"?>
<!DOCTYPE svg PUBLIC "-//W3C//DTD SVG 1.1//EN" "http://www.w3.org/Graphics/SVG/1.1/DTD/svg11.dtd">
<svg version="1.1" xmlns="http://www.w3.org/2000/svg" xmlns:xlink="http://www.w3.org/1999/xlink" preserveAspectRatio="xMidYMid meet" viewBox="0 0 640 640" width="640" height="640"><defs><path d="M201.64 223.51C204.93 223.74 208.05 222.04 209.65 219.15C210.39 217.82 210.6 217.43 211.49 215.82C212.72 213.6 214.3 211.59 216.17 209.87C217.52 208.62 218.36 207.84 219.62 206.68C221.82 204.65 224.37 203.04 227.15 201.93C228.54 201.37 228.14 201.53 229.44 201.01C232.55 199.76 235.81 198.9 239.13 198.45C239.62 198.38 240.87 198.21 242.85 197.93C242.85 197.93 242.85 197.93 242.85 197.93C244.24 198.1 247.43 196.38 249.5 192.17C249.5 192.17 249.5 192.17 249.5 192.17C250.27 187.93 250.66 183.63 250.66 179.32C250.66 177.02 250.66 175.86 250.66 173.37C250.66 169.67 250.22 165.98 249.36 162.38C248.69 159.6 247.69 155.46 246.95 152.37C246.33 149.77 245.94 147.11 245.79 144.44C245.67 142.49 245.73 143.48 245.66 142.24C245.38 137.32 246.62 132.44 249.2 128.25C249.49 127.78 248.51 129.38 249.33 128.05C250.21 126.62 251.33 125.36 252.66 124.33C253.49 123.68 251.91 124.91 252.22 124.67C255.17 122.37 258.89 121.28 262.62 121.62C263.47 121.7 263.18 121.67 264.77 121.82C266.15 121.94 267.46 122.47 268.54 123.33C269.38 124 270.27 124.71 271.12 125.39C272.17 126.23 273.01 127.3 273.58 128.52C274.06 129.56 274.51 130.54 274.96 131.5C275.64 132.97 276 134.57 276 136.19C276 136.59 276 137.61 276 139.23C276 141.28 276 142.57 276 143.08C276 146.22 275.77 149.36 275.32 152.46C275.22 153.17 274.96 154.93 274.55 157.74L272.72 166.59L271.27 174.79C271.45 173.16 271.45 173.16 271.27 174.79C271.16 175.68 271.09 178.37 271.03 182.85C270.97 187.22 272.65 191.43 275.7 194.56C275.96 194.83 274.65 193.48 275.58 194.44C276.52 195.41 277.65 196.18 278.9 196.72C280.56 197.43 282.66 198.33 284.07 198.94C286.1 199.81 288.37 199.99 290.51 199.44C291.68 199.14 292.74 198.86 294.12 198.51C295.58 198.13 296.91 197.38 297.99 196.32C298.83 195.49 299.56 194.77 300.36 193.98C301.55 192.81 302.32 191.28 302.55 189.63C302.6 189.29 302.72 188.44 302.91 187.08C302.1 187.22 301.59 187.31 301.38 187.35C298.53 187.84 295.6 187.26 293.16 185.71C292.54 185.32 294.2 186.37 293.51 185.93C291.26 184.51 289.39 182.56 288.06 180.26C288.06 180.26 288.06 180.26 288.06 180.26C288.06 180.26 288.06 180.26 288.06 180.26C286.76 178.01 286.49 175.32 287.31 172.85C287.58 172.03 286.95 173.93 287.18 173.23C288.15 170.3 290.07 167.77 292.64 166.05C292.8 165.93 293.22 165.65 293.89 165.2C295.47 164.69 296.46 164.37 296.85 164.24C298.92 163.56 301.13 163.48 303.24 164.01C303.6 164.1 302.18 163.75 302.72 163.88C304.25 164.26 305.67 165.01 306.86 166.04C307.21 166.35 308.09 167.12 309.5 168.35C311.69 169.7 313.06 170.54 313.61 170.88C314.1 171.18 314.64 171.37 315.2 171.44C315.93 171.54 317.74 171.78 320.65 172.17C322.04 171.82 322.91 171.59 323.26 171.5C324.72 171.13 325.96 170.15 326.66 168.82C327.11 167.95 327.55 167.13 328.04 166.18C328.64 165.05 329.44 164.03 330.41 163.19C331.43 162.31 332.1 161.73 332.89 161.04C334.62 159.54 336.64 158.39 338.82 157.67C340.09 157.26 339.99 157.29 341.11 156.92C341.11 156.92 349.24 154.4 349.24 154.4C351.59 153.72 353.3 152.99 354.35 152.21C354.96 151.76 356.93 147.31 357.15 141.19C357.35 135.86 355.84 130.5 355.8 128.77C355.77 127.48 352.37 120.3 351.91 113.76C351.58 109.03 354.08 104.32 354.35 103.96C354.6 103.65 355.76 101.48 358.75 100.13C359.5 99.8 360.48 99.56 361.7 99.41C363.79 99.14 365.92 99.53 367.78 100.51C368.42 100.85 368.14 100.7 368.94 101.12C370.29 101.83 371.46 102.82 372.37 104.03C372.64 104.37 371.6 103.01 371.76 103.21C373.03 104.89 373.88 106.86 374.21 108.95C374.52 110.9 374.91 113.32 375.21 115.21C375.58 117.54 375.67 119.9 375.48 122.25C375.4 123.26 375.46 122.55 375.38 123.51C375.17 126.05 374.71 128.56 374.01 131C372.89 134.84 372.32 137.42 372.27 138.75C372.22 140.2 372.13 142.73 372 146.33C371.93 148.1 372.39 149.85 373.32 151.36C373.99 152.46 374.29 152.94 374.88 153.92C376.06 155.84 377.74 157.42 379.73 158.49C380.43 158.86 379.53 158.38 380.24 158.76C382.21 159.81 384.41 160.36 386.64 160.36C387.29 160.36 385.63 160.36 386.23 160.36C388.6 160.36 390.89 159.49 392.65 157.9C393.47 157.17 393.32 157.31 394.17 156.54C395.87 155.01 397.21 153.12 398.09 151.01C398.48 150.07 398.16 150.84 398.51 150C399.52 147.6 401.23 145.56 403.42 144.16C404.48 143.48 405.29 143.05 405.85 142.87C408.82 141.91 410.02 141.59 411.84 142.17C412.3 142.32 413.44 142.99 415.27 144.19C418.62 146.4 420.42 150.32 419.91 154.3C419.89 154.48 419.84 154.9 419.75 155.59C419 157.05 418.53 157.97 418.34 158.34C417.4 160.16 415.89 161.63 414.04 162.52C413.5 162.78 412.15 163.43 410 164.46C408.75 165.49 407.98 166.12 407.67 166.38C406.11 167.66 405.04 169.43 404.63 171.4C404.51 171.94 404.72 170.96 404.58 171.61C404.25 173.21 404.48 174.88 405.23 176.32C405.68 177.2 406 177.81 406.49 178.74C407.15 180.03 408 181.21 409.01 182.25C409.86 183.13 409.05 182.29 409.44 182.69C411.96 185.3 413.73 188.53 414.57 192.05C414.79 193 414.31 190.98 414.57 192.05C415.3 195.13 415.02 198.36 413.76 201.27C413.38 202.15 413.49 201.88 412.94 203.15C412.23 204.81 412.01 206.64 412.33 208.41C412.42 208.92 412.32 208.32 412.43 208.98C412.66 210.22 413.42 211.3 414.52 211.92C415.69 212.59 417.33 213.51 418.46 214.16C419.73 214.88 421.13 215.33 422.58 215.5C423.77 215.64 426.75 215.99 431.52 216.55C433.29 216.99 434.41 217.26 434.85 217.37C437.71 218.07 440.49 219.06 443.14 220.32C443.83 220.65 443.22 220.36 444.24 220.85C445.76 221.56 447.03 222.7 447.92 224.11C448.4 224.85 448.15 224.46 448.55 225.09C449.68 226.88 450.28 228.96 450.28 231.08C450.28 232.08 450.28 231.42 450.28 232.32C450.28 234.77 449.38 237.14 447.76 238.97C447.27 239.52 447.98 238.72 447.41 239.37C446.07 240.88 444.21 241.85 442.2 242.08C441.41 242.17 442.19 242.08 441.41 242.17C439.33 242.41 437.22 242.21 435.23 241.59C434.36 241.32 435.54 241.69 434.86 241.48C432.24 240.66 429.82 239.3 427.76 237.48C427.46 237.22 426.73 236.57 425.55 235.54L420.75 230.97C420.75 230.97 420.75 230.97 420.75 230.97C417.5 228.52 413.45 227.41 409.41 227.87C408.82 227.93 410.67 227.72 409.41 227.87C407.48 228.08 405.65 228.79 404.08 229.93C403.16 230.59 403.22 230.54 402.41 231.13C400.48 232.53 398.91 234.37 397.85 236.51C397.58 237.04 398.17 235.86 397.85 236.51C396.99 238.23 396.79 240.2 397.29 242.06C397.49 242.77 397.97 244.56 398.74 247.42C399.04 248.23 399.23 248.74 399.31 248.94C400.71 252.68 400.4 256.84 398.46 260.33C398.46 260.33 398.46 260.33 398.46 260.33C398.12 261.55 397.91 262.31 397.83 262.61C397.12 265.17 397.11 267.88 397.78 270.45C397.97 271.18 397.93 271.03 398.22 272.16C398.56 273.44 398.48 274.8 397.99 276.04C397.74 276.67 398.13 275.68 397.98 276.06C397.24 277.95 395.42 279.19 393.39 279.19C393.16 279.19 395.32 279.19 394.96 279.19C393.26 279.19 391.67 278.37 390.69 276.98C390.42 276.6 390.93 277.32 390.6 276.85C389.78 275.69 389.19 274.38 388.86 272.99C388.68 272.25 388.74 272.47 388.58 271.82C388.18 270.13 387.98 268.41 387.98 266.68C387.98 264.53 387.98 260.98 387.98 258.91C387.98 256.96 387.57 255.03 386.77 253.26C386.45 252.55 386.66 253.02 386.33 252.29C385.61 250.68 384.19 249.49 382.47 249.07C381.13 248.74 380.29 248.53 379.06 248.23C376.88 247.69 374.62 247.46 372.37 247.55C369.65 247.65 364.34 247.85 361.49 247.96C359.69 248.03 357.94 248.53 356.38 249.42C355.34 250.02 352.74 251.5 348.59 253.88C347.83 251.77 347.35 250.44 347.16 249.92C346.41 247.82 344.61 246.28 342.42 245.85C342.18 245.8 341.59 245.69 340.63 245.5L336.06 244.85C334.84 244.71 334.08 244.62 333.78 244.59C331.9 244.38 330.2 245.68 329.91 247.55C329.72 248.81 329.72 248.78 329.55 249.92C329.18 252.34 327.45 254.32 325.11 255.02C317.94 257.14 303.05 261.55 296.57 263.47C291.86 264.86 287.82 267.95 285.23 272.13C280.81 279.29 276.91 285.7 273.55 291.38C267.2 302.09 262.3 310.86 258.85 317.68C255.37 324.56 254.88 325.07 254.36 327.99C254.15 329.16 254.02 330.61 253.97 332.36C253.97 332.36 253.87 338.86 253.87 338.86C253.87 340.75 253.87 341.68 253.87 343.2C253.87 346.49 252.61 349.65 250.36 352.04C249.8 352.64 250.55 351.84 249.71 352.72C248.33 354.19 246.42 355.04 244.4 355.09C243.17 355.12 241.69 355.15 240.22 355.18C238.92 355.22 237.64 354.93 236.48 354.34C235.2 353.7 236.73 354.47 236.36 354.28C232.57 352.37 230.36 348.31 230.82 344.1C230.89 343.47 230.72 345.06 230.88 343.55C231.07 341.85 231.57 340.2 232.35 338.68C233.95 335.59 237.06 329.55 238.54 326.7C239.69 324.47 239.98 321.9 239.36 319.48C239.2 318.87 239.67 320.68 239.5 320.04C238.9 317.68 237.73 315.5 236.1 313.68C235.85 313.4 236.95 314.63 236.54 314.17C235.41 312.92 234 311.95 232.42 311.36C231.55 311.04 231.65 311.07 230.85 310.78C229.09 310.12 227.14 310.14 225.39 310.83C224.66 311.12 225.24 310.89 224.52 311.17C222.73 311.88 220.76 312.02 218.89 311.58C217.96 311.36 218.25 311.43 217.37 311.22C215.42 310.75 213.82 309.34 213.11 307.46C212.14 304.84 211.61 303.39 211.54 303.12C210.55 299.38 210.05 296.87 207.03 294.39C207.03 294.39 207.03 294.39 207.03 294.39C205.95 294.08 205.28 293.88 205.01 293.8C200.48 292.49 195.61 293.13 191.57 295.57C188.03 297.71 184.65 299.45 181.41 300.78C177.88 302.24 174.48 303.28 171.22 303.9C167.81 304.56 164.27 303.96 161.26 302.22C160.34 301.69 160.77 301.94 159.48 301.19C157.66 300.14 156.23 298.52 155.41 296.59C155.06 295.77 155.38 296.53 155.06 295.77C154.17 293.67 154.09 291.31 154.84 289.16C155.41 287.52 154.83 289.19 155.12 288.36C156.75 283.67 160.4 279.97 165.06 278.27C166.22 277.85 167.86 277.26 170.4 276.34C170.71 276.22 171.04 276.15 171.36 276.1C176.36 275.47 179.15 275.12 179.74 275.04C183.79 274.49 187.62 272.86 190.81 270.32C191.09 270.1 191.36 269.87 191.63 269.64C192.89 268.54 192.89 268.54 191.63 269.64C192.85 268.58 193.64 267.11 193.86 265.51C194.09 263.82 194.43 261.39 194.66 259.74C194.9 257.98 194.55 256.2 193.65 254.67C192.75 253.12 192.16 252.12 191.44 250.9C189.96 248.35 187.57 246.46 184.75 245.59C183.34 245.16 182.28 244.83 180.57 244.31C180.57 244.31 174.8 242.92 174.8 242.92C172.66 242.55 170.52 242.18 168.72 241.87C165.73 241.35 162.98 239.88 160.88 237.69C160.14 236.93 159.64 236.33 159.37 235.89C157.63 233.04 156.67 229.73 156.67 226.31C156.67 224.27 156.67 224.27 156.67 226.31C156.67 224.3 157.1 222.31 157.94 220.48C158.56 219.1 158.61 219 159.09 217.94C160.35 215.16 162.63 212.96 165.46 211.8C167.59 210.92 166.12 211.53 167.38 211.01C172.81 208.77 179 209.51 183.75 212.97C186.58 215.02 190.25 217.69 193.79 220.26C196.47 222.22 199.66 223.38 202.98 223.6C203.79 223.66 200.89 223.46 201.64 223.51Z" id="aadHAsone"></path><path d="" id="b1eiEUxWE"></path><path d="M204.96 192.58C204.96 197.82 200.47 202.07 194.95 202.07C189.42 202.07 184.93 197.82 184.93 192.58C184.93 187.35 189.42 183.1 194.95 183.1C200.47 183.1 204.96 187.35 204.96 192.58Z" id="e3QESdFYHN"></path><path d="M174.92 184.26C174.92 188.04 172 191.11 168.4 191.11C164.8 191.11 161.88 188.04 161.88 184.26C161.88 180.47 164.8 177.4 168.4 177.4C172 177.4 174.92 180.47 174.92 184.26Z" id="lpcZqyrmA"></path><path d="M201.62 326.4C201.62 331.66 197.13 335.93 191.6 335.93C186.07 335.93 181.59 331.66 181.59 326.4C181.59 321.14 186.07 316.86 191.6 316.86C197.13 316.86 201.62 321.14 201.62 326.4Z" id="a7EsrkKNUO"></path><path d="M211.37 347.47C211.37 351.07 208.08 353.99 204.02 353.99C199.95 353.99 196.66 351.07 196.66 347.47C196.66 343.87 199.95 340.94 204.02 340.94C208.08 340.94 211.37 343.87 211.37 347.47Z" id="a6GM2Wbs9"></path><path d="M323.93 151.78C323.93 156.28 320.28 159.92 315.78 159.92C311.29 159.92 307.64 156.28 307.64 151.78C307.64 147.29 311.29 143.64 315.78 143.64C320.28 143.64 323.93 147.29 323.93 151.78Z" id="a1P1QQYJcL"></path><path d="M301.15 144.96C301.15 147.58 298.95 149.7 296.25 149.7C293.55 149.7 291.35 147.58 291.35 144.96C291.35 142.35 293.55 140.23 296.25 140.23C298.95 140.23 301.15 142.35 301.15 144.96Z" id="h4tZvv7AGG"></path><path d="M437.15 172.58C437.15 176.34 434.35 179.39 430.9 179.39C427.45 179.39 424.65 176.34 424.65 172.58C424.65 168.81 427.45 165.76 430.9 165.76C434.35 165.76 437.15 168.81 437.15 172.58Z" id="aT9Q7omQB"></path><path d="" id="dAsk1dhdK"></path><path d="" id="allUlmmAD"></path><path d="M272.72 218.73C276.25 218.23 279.82 219.39 282.39 221.86C283.52 222.95 283.65 223.07 284.99 224.36C286.97 226.26 288.32 228.73 288.86 231.43C289.25 233.4 289.66 235.43 290.07 237.47C290.56 239.98 291.4 242.41 292.54 244.69C293.39 246.39 294.15 247.93 294.99 249.6C296.14 251.9 298.11 253.69 300.51 254.61C301.74 255.08 301.39 254.95 302.55 255.39C304.95 256.31 307.66 255.4 309.02 253.22C309.5 252.45 309.43 252.57 310.11 251.47C310.97 250.1 311.28 248.46 310.97 246.87C310.8 245.98 310.62 245.06 310.41 243.99C310.21 242.93 309.85 241.92 309.34 240.97C308.81 239.98 308.12 238.7 307.63 237.78C307.01 236.64 306.84 235.31 307.14 234.05C307.3 233.35 307.23 233.68 307.37 233.09C307.75 231.45 308.67 229.99 309.97 228.92C310.37 228.59 309.99 228.9 310.5 228.48C311.43 227.71 312.62 227.32 313.82 227.38C314.73 227.42 315.99 227.48 317 227.52C317.88 227.57 318.71 227.95 319.31 228.59C320.03 229.36 321.27 230.67 321.99 231.44C322.6 232.09 323.06 232.88 323.32 233.73C323.45 234.14 323.77 235.18 324.29 236.84C324.29 237.92 324.29 238.6 324.29 238.87C324.29 238.87 324.1 242.82 324.1 242.82C323.81 245.94 324.18 248.24 325.22 249.71C326.56 251.6 329.14 253.19 332.97 254.5C335.86 254.85 337.66 255.06 338.39 255.15C340.51 255.41 342.67 255.05 344.6 254.13C345.61 253.64 346.57 253.19 347.8 252.6C349.01 252.02 350.01 251.06 350.64 249.88C351.44 248.38 351.77 247.77 352.29 246.79C353.83 243.9 354.71 240.7 354.86 237.43C354.92 236.08 354.99 234.51 355.08 232.54C355.13 231.31 355.32 230.1 355.65 228.93C356.2 226.96 357.35 222.82 357.9 220.86C358.23 219.68 358.85 218.61 359.69 217.73C360.39 217.01 361.23 216.14 361.94 215.4C362.74 214.57 363.67 213.87 364.68 213.31C365.66 212.78 367.32 211.86 368.36 211.29C369.16 210.85 370.04 210.6 370.94 210.54C371.96 210.48 373.81 210.37 374.87 210.3C375.65 210.26 376.44 210.33 377.2 210.51C378.29 210.77 379.29 211.01 380.1 211.21C381.74 211.6 383.12 212.68 383.91 214.17C384.18 214.67 384.17 214.66 384.55 215.37C385.01 216.25 385.37 217.18 385.6 218.14C385.81 218.98 385.77 218.8 385.9 219.32C386.39 221.3 386.43 223.37 386.02 225.37C385.95 225.69 385.79 226.5 385.52 227.81C384.33 229.75 383.59 230.96 383.29 231.45C383.29 231.45 381.94 233.37 381.94 233.37C381.03 234.49 378.76 237.3 375.13 241.8C373.08 245.28 371.8 247.45 371.29 248.32C370.38 249.86 369.9 251.61 369.9 253.39C369.9 254.92 369.9 256.83 369.9 258.37C369.9 260.01 370.72 261.56 372.09 262.47C372.7 262.88 372.88 263 373.62 263.5C374.59 264.15 375.77 264.42 376.93 264.25C378.2 264.06 379.96 263.79 381.16 263.61C382.48 263.42 383.6 262.53 384.09 261.29C384.6 260 385.35 258.12 385.86 256.83C386.38 255.52 387.14 254.32 388.11 253.3C388.35 253.04 388.96 252.4 389.94 251.37C390.82 250.84 391.36 250.51 391.58 250.38C393.29 249.34 395.29 248.91 397.27 249.13C397.52 249.16 398.13 249.23 399.1 249.34C399.95 249.62 400.47 249.79 400.69 249.86C402.25 250.38 403.55 251.5 404.26 252.99C404.38 253.24 404.68 253.86 405.16 254.84C405.27 255.67 405.34 256.18 405.37 256.39C405.65 258.44 405.11 260.53 403.87 262.19C403.23 263.05 402.5 264.03 401.68 265.14C401.01 266.04 400.18 266.8 399.23 267.39C397.79 268.27 394.93 270.03 393.49 270.91C392.57 271.48 391.96 272.43 391.83 273.5C391.65 274.92 391.38 277.16 391.21 278.5C391.04 279.87 391.24 281.27 391.8 282.54C392.28 283.64 393.28 285.91 393.86 287.23C394.1 287.77 394.38 288.29 394.71 288.77C395.59 290.07 397.35 292.66 398.13 293.82C398.75 294.73 399.74 295.31 400.83 295.41C402.94 295.6 405.85 295.86 407.53 296.01C410.03 296.24 412.54 295.77 414.79 294.66C416.17 293.98 417.65 293.26 419.23 292.48C420.87 291.68 422.42 290.71 423.87 289.59C425.45 288.37 427.59 286.72 429.07 285.58C430.75 284.29 432.97 283.92 434.97 284.61C435.87 284.91 436.46 285.12 437.64 285.52C438.83 285.93 439.92 286.59 440.83 287.47C441.19 287.83 442.11 288.72 443.57 290.15C444.27 291.49 444.7 292.33 444.88 292.67C445.58 294.03 445.66 295.62 445.1 297.04C444.57 298.36 444.05 299.68 443.57 300.89C442.86 302.68 441.72 304.26 440.25 305.49C439.39 306.21 438.93 306.59 438.04 307.34C436.72 308.45 435.01 308.97 433.29 308.8C431.48 308.62 428.06 308.27 426.08 308.07C424.85 307.94 423.62 307.93 422.39 308.03C419.93 308.24 413.99 308.74 411.43 308.96C410.53 309.03 409.66 309.33 408.9 309.81C407.45 310.74 404.86 312.4 403.55 313.23C402.31 314.02 401.38 315.24 400.95 316.66C400.58 317.87 400.24 319 399.89 320.13C399.38 321.8 399.45 323.6 400.08 325.23C400.48 326.26 400.71 326.85 401.11 327.88C401.72 329.47 402.97 330.73 404.56 331.35C405.57 331.75 406.62 332.16 407.76 332.6C408.99 333.09 410.33 333.29 411.65 333.19C412.81 333.11 414.41 332.99 415.6 332.9C416.83 332.81 418.05 332.87 419.26 333.07C420.31 333.25 421.82 333.5 422.91 333.69C423.94 333.86 424.88 334.36 425.6 335.11C426.1 335.63 426.55 336.09 427.06 336.63C427.75 337.34 428.25 338.21 428.53 339.15C428.69 339.72 428.83 340.19 429.01 340.81C429.24 341.58 429.2 342.39 428.93 343.13C428.51 344.24 427.83 346.06 427.45 347.07C427.07 348.08 426.29 348.88 425.3 349.28C424.34 349.67 423.35 350.08 422.47 350.44C421.22 350.95 419.81 350.88 418.62 350.26C417.51 349.68 415.48 348.63 414.23 347.97C413.45 347.57 412.72 347.08 412.05 346.52C411.2 345.8 409.79 344.62 408.97 343.94C408.19 343.28 407.23 342.86 406.22 342.73C405.11 342.58 403.34 342.34 402.23 342.2C401.24 342.06 400.24 342.37 399.48 343.03C398.97 343.48 398.69 343.72 398.2 344.15C397.41 344.84 397.1 345.92 397.4 346.92C397.81 348.27 398.5 350.53 398.9 351.85C399.24 352.98 400.11 353.87 401.22 354.26C403.59 355.09 409.12 357.01 411.54 357.86C412.55 358.21 413.49 358.72 414.33 359.37C415.04 359.92 415.47 360.26 416.07 360.72C417.22 361.61 417.89 362.98 417.89 364.44C417.89 365.45 417.89 367.08 417.89 368.31C417.89 369.11 417.78 369.91 417.57 370.69C417.29 371.69 417.21 372 417.04 372.62C416.49 374.61 415.22 376.33 413.47 377.43C412.93 377.77 413.45 377.44 412.77 377.88C411.5 378.67 409.97 378.93 408.51 378.6C407.47 378.36 405.8 377.97 404.55 377.68C403.72 377.49 402.96 377.09 402.32 376.53C401.51 375.81 400.69 375.07 400.04 374.49C398.89 373.47 398.04 372.16 397.58 370.7C397.32 369.89 397.3 369.82 397.05 369.05C396.56 367.5 395.63 366.14 394.36 365.13C393.9 364.76 394.69 365.39 394.29 365.07C393.08 364.11 391.31 364.39 390.46 365.68C390.04 366.32 389.65 366.9 389.06 367.81C388.59 368.53 388.27 369.33 388.11 370.17C387.81 371.73 387.29 374.51 387.03 375.91C386.78 377.26 386.08 378.47 385.04 379.36C383.55 380.64 382.47 381.52 381.81 382.02C377.84 385.01 376.49 386.03 377.77 385.06C376.53 386 375.63 387.33 375.24 388.85C374.96 389.91 374.6 391.31 374.29 392.51C374 393.61 373.91 394.76 374.02 395.9C374.14 397.13 374.31 399.03 374.43 400.24C374.54 401.42 374.45 402.61 374.17 403.76C373.74 405.49 372.87 409.04 372.44 410.8C372.18 411.86 371.62 412.82 370.83 413.57C369.99 414.36 369.28 415.04 368.58 415.69C367.38 416.84 365.66 417.28 364.05 416.85C362.92 416.56 361.46 416.17 360.16 415.83C358.99 415.53 357.79 415.37 356.59 415.37C355.76 415.37 355.29 415.37 354.52 415.37C353.18 415.37 351.89 415.88 350.91 416.79C350.42 417.25 349.86 417.77 349.21 418.37C348.72 418.83 348.34 419.4 348.1 420.03C347.27 422.28 345.48 427.09 344.73 429.09C344.19 430.55 343.79 432.06 343.54 433.59C343.29 435.18 342.66 439.14 341.64 445.49L339.65 463.95L339.65 479.86C340.34 485.67 340.78 489.29 340.95 490.74C341.03 491.44 341.17 492.13 341.37 492.81C341.88 494.54 342.74 497.47 343.16 498.89C343.66 500.58 343.82 502.36 343.63 504.11C343.46 505.74 343.21 508.15 343.03 509.82C342.87 511.41 342.27 512.92 341.31 514.2C340.58 515.18 339.71 516.35 338.94 517.37C338.14 518.44 336.88 519.07 335.54 519.07C334.72 519.07 334.21 519.07 333.35 519.07C332.09 519.07 330.85 518.7 329.79 518.02C329.15 517.6 329.07 517.55 328.49 517.17C327.25 516.37 326.28 515.22 325.7 513.86C325.3 512.91 324.87 511.89 324.44 510.88C323.95 509.73 323.77 508.47 323.91 507.23C324.02 506.18 324.06 505.84 324.15 505.02C324.15 505.02 325.11 498.98 325.11 498.98C325.4 497.54 325.77 495.75 326.09 494.19C326.42 492.6 326.61 490.98 326.67 489.35C326.73 487.7 326.88 483.6 327.11 477.02L327.44 461.4L323.7 436.4C322.28 430.76 321.39 427.24 321.04 425.83C320.76 424.74 320.28 423.71 319.63 422.8C318.98 421.88 317.97 420.47 317.31 419.55C316.7 418.69 315.78 418.11 314.75 417.92C314.33 417.84 314.29 417.83 313.78 417.74C313.08 417.61 312.37 417.83 311.86 418.33C311.23 418.97 310.92 419.28 310.49 419.71C309.33 420.87 308.66 422.42 308.62 424.05C308.58 425.28 308.5 428.36 308.36 433.27C309.09 437.9 309.55 440.8 309.73 441.95C309.97 443.49 309.6 445.06 308.69 446.32C308.15 447.06 307.85 447.47 307.29 448.25C306.49 449.35 305.17 449.94 303.82 449.78C303.26 449.72 304.08 449.81 303.6 449.76C301.99 449.58 300.58 448.59 299.86 447.14C299.42 446.24 298.85 445.09 298.31 444C297.87 443.12 297.73 442.13 297.91 441.16C298.12 440.03 298.24 439.34 298.4 438.51C298.4 438.51 299.22 432.42 299.22 432.42C299.3 431.57 299.29 431.62 299.38 430.65C299.52 429 299.36 427.34 298.89 425.76C298.64 424.91 298.23 423.52 297.89 422.36C297.72 421.8 297.44 421.28 297.05 420.85C296.38 420.09 295.35 418.93 294.77 418.28C294.06 417.48 293.48 416.57 293.05 415.59C292.78 414.96 292.7 414.79 292.45 414.22C291.94 413.03 291.67 411.75 291.67 410.46C291.67 409.66 291.67 407.66 291.67 404.47L291.48 396.06C291.23 393.39 291.08 391.72 291.02 391.05C290.89 389.59 290.48 388.17 289.83 386.86C289.23 385.66 288.23 383.67 287.59 382.38C287.18 381.57 286.18 381.26 285.39 381.71C284.89 382 284.89 382 284.4 382.28C283.43 382.84 282.74 383.79 282.52 384.9C282.41 385.4 282.4 385.47 282.29 386.05C282.1 386.95 281.74 387.81 281.22 388.57C280.64 389.42 280.08 390.24 279.6 390.95C278.76 392.17 277.58 393.1 276.21 393.64C275.61 393.87 275.89 393.76 275.29 394C273.95 394.51 272.47 394.48 271.16 393.91C270.66 393.69 270.91 393.8 270.34 393.55C269.23 393.07 268.21 392.39 267.32 391.57C266.73 391.02 266.36 390.67 265.78 390.13C264.91 389.32 264.48 388.14 264.63 386.96C264.76 385.98 264.93 384.57 265.07 383.5C265.19 382.53 265.54 381.6 266.11 380.81C266.62 380.08 267.47 378.88 268.02 378.09C268.45 377.49 268.93 376.94 269.46 376.44C270.21 375.74 271.44 374.59 272.13 373.94C272.84 373.27 273.41 372.48 273.81 371.59C274.26 370.61 274.99 369.01 275.43 368.03C275.83 367.16 275.87 366.18 275.56 365.29C275.26 364.43 274.89 363.39 274.61 362.57C274.26 361.59 273.44 360.87 272.43 360.66C271.68 360.5 271.14 360.39 270.41 360.23C269.3 360 268.14 360.27 267.26 360.98C266.69 361.44 266.32 361.73 265.74 362.2C264.86 362.9 264.16 363.81 263.72 364.85C263.25 365.93 262.31 368.1 261.79 369.31C261.53 369.92 261.06 370.41 260.48 370.72C259.49 371.24 258.02 372.01 257.18 372.46C256.11 373.02 254.89 373.21 253.7 373.01C252.6 372.82 250.81 372.52 249.62 372.32C248.7 372.16 247.86 371.71 247.22 371.03C246.56 370.33 245.82 369.54 245.23 368.91C244.4 368.02 243.94 366.86 243.94 365.65C243.94 364.95 243.94 364.58 243.94 363.84C243.94 362.72 244.23 361.62 244.78 360.65C245.17 359.96 245.37 359.61 245.73 358.98C246.39 357.81 247.36 356.86 248.54 356.23C248.84 356.07 249.58 355.67 250.76 355.03L256.73 351.76C259.17 350.04 260.7 348.97 261.31 348.54C262.41 347.76 263.36 346.79 264.11 345.67C264.56 344.98 264.83 344.58 265.3 343.88C265.99 342.84 266.25 341.56 266 340.32C265.85 339.57 265.75 339.09 265.6 338.3C265.37 337.16 264.86 336.1 264.12 335.21C263.49 334.46 263.04 333.92 262.49 333.26C261.54 332.11 260.13 331.45 258.64 331.45C258.12 331.45 256.82 331.45 254.74 331.45C252.09 331.81 250.43 332.04 249.77 332.13C247.99 332.37 246.3 333.02 244.82 334.03C244.32 334.37 243.08 335.22 241.1 336.57C239.15 337.77 237.93 338.53 237.44 338.83C235.93 339.77 234.21 340.33 232.43 340.46C231.51 340.53 230.56 340.6 229.42 340.68C228.37 340.76 227.32 340.63 226.33 340.31C225.24 339.96 223.79 339.49 222.78 339.16C221.55 338.76 220.41 338.11 219.44 337.25C218.77 336.66 218.04 336.01 217.32 335.38C216.52 334.66 215.86 333.79 215.4 332.82C215.03 332.03 214.85 331.65 214.54 330.99C213.89 329.63 213.72 328.1 214.05 326.64C214.25 325.72 214.28 325.58 214.47 324.76C214.86 323 215.83 321.43 217.23 320.3C218.04 319.64 218.69 319.11 219.6 318.38C220.69 317.49 222 316.9 223.39 316.65C224.94 316.37 227.45 315.92 229 315.64C230.42 315.39 231.87 315.37 233.3 315.58C234.17 315.72 236.36 316.04 239.85 316.57L247.07 317.16C250.01 316.94 251.84 316.79 252.58 316.74C253.97 316.63 255.29 316.03 256.29 315.05C256.71 314.63 257.21 314.15 257.82 313.54C258.21 313.17 258.46 312.68 258.55 312.16C258.7 311.3 258.83 310.54 258.93 309.93C259.16 308.61 258.9 307.24 258.21 306.09C257.92 305.6 257.86 305.51 257.51 304.92C257.01 304.08 256.19 303.49 255.24 303.28C254.52 303.12 253.87 302.98 253.16 302.82C252.14 302.59 251.09 302.61 250.08 302.86C249.48 303.01 249.32 303.05 248.74 303.19C247.64 303.47 246.49 303.5 245.37 303.29C244.52 303.13 243.53 302.94 242.64 302.77C241.66 302.58 240.79 302 240.25 301.16C239.79 300.46 239.48 299.97 239.07 299.34C238.37 298.26 238.14 296.94 238.44 295.69C238.57 295.11 238.64 294.84 238.8 294.14C239.01 293.27 239.41 292.46 239.98 291.77C241 290.56 242.14 289.82 243.42 289.53C245.12 289.15 247.42 289.36 250.33 290.15C251.9 291.4 252.89 292.18 253.28 292.5C253.98 293.06 254.79 293.48 255.65 293.73C256.38 293.95 257.28 294.21 258.02 294.43C258.83 294.67 259.7 294.58 260.45 294.18C260.95 293.91 260.65 294.07 260.99 293.89C262.21 293.23 262.98 291.95 262.98 290.56C262.98 290.1 262.98 290.88 262.98 290.4C262.98 289.05 262.4 287.76 261.38 286.86C260.74 286.29 259.88 285.54 259.1 284.85C258.47 284.29 257.76 283.83 256.98 283.49C256.38 283.22 254.88 282.54 252.47 281.45L241.95 279.55C238.04 279.29 235.6 279.13 234.62 279.06C233.01 278.96 231.43 278.58 229.95 277.95C229.27 277.66 229.18 277.63 228.43 277.31C227.19 276.79 226.07 276.01 225.15 275.03C224.65 274.5 224.33 274.17 223.77 273.58C223.03 272.8 222.43 271.88 222.01 270.88C221.79 270.36 221.51 269.71 221.23 269.03C221.02 268.53 220.91 267.99 220.91 267.44C220.91 266.96 220.91 266.09 220.91 265.54C220.91 265.19 220.94 264.85 221.01 264.5C221.21 263.52 221.6 261.56 221.77 260.69C221.92 259.97 222.25 259.31 222.74 258.76C223.07 258.38 223.91 257.43 225.25 255.91C227.47 254.46 228.86 253.55 229.42 253.19C230.09 252.75 230.86 252.46 231.66 252.34C233.15 252.11 235.27 251.8 236.47 251.62C238.2 251.36 239.96 251.58 241.57 252.26C242.72 252.75 245.59 253.96 250.17 255.91L256.29 262.15L261.38 268.27C263.27 270.9 264.45 272.54 264.92 273.19C265.86 274.5 267.27 275.4 268.86 275.69C269.9 275.88 271.56 276.19 272.86 276.43C273.65 276.57 274.45 276.61 275.25 276.54C276.3 276.44 277.1 276.37 277.86 276.31C279.48 276.16 280.9 275.15 281.55 273.65C282.1 272.42 282.82 270.77 283.4 269.44C283.97 268.16 284.11 266.74 283.82 265.37C283.46 263.69 282.99 261.52 282.67 260.04C282.24 258.05 281.14 256.28 279.56 255.02C278.67 254.31 276.44 252.54 272.87 249.71C269.09 246.69 266.73 244.8 265.78 244.04C263.93 242.57 262.42 240.71 261.36 238.6C259.88 235.68 259.19 233.63 259.28 232.45C259.43 230.55 260.45 227.99 262.34 224.76C264.18 221.61 267.36 219.48 270.97 218.97C272.44 218.77 271.22 218.94 272.72 218.73Z" id="c2g8jVpwz8"></path><path d="M447.15 362.69C447.15 366.84 443.88 370.2 439.85 370.2C435.83 370.2 432.56 366.84 432.56 362.69C432.56 358.55 435.83 355.19 439.85 355.19C443.88 355.19 447.15 358.55 447.15 362.69Z" id="c5faQiuoM"></path><path d="M411.41 410.62C411.41 415.39 407.77 419.27 403.3 419.27C398.82 419.27 395.19 415.39 395.19 410.62C395.19 405.85 398.82 401.97 403.3 401.97C407.77 401.97 411.41 405.85 411.41 410.62Z" id="b2SfbxHDwx"></path><path d="M335.8 220.76C335.8 223.37 333.6 225.5 330.9 225.5C328.2 225.5 326 223.37 326 220.76C326 218.15 328.2 216.03 330.9 216.03C333.6 216.03 335.8 218.15 335.8 220.76Z" id="a2oYirCc6M"></path><path d="M427.08 256.61C427.08 260.19 424.42 263.09 421.14 263.09C417.85 263.09 415.19 260.19 415.19 256.61C415.19 253.03 417.85 250.12 421.14 250.12C424.42 250.12 427.08 253.03 427.08 256.61Z" id="bmMvLFjKs"></path><path d="M223.3 304.13C223.3 306.52 221.19 308.46 218.59 308.46C216 308.46 213.89 306.52 213.89 304.13C213.89 301.75 216 299.81 218.59 299.81C221.19 299.81 223.3 301.75 223.3 304.13Z" id="a4DeaMoYG"></path><path d="M273.57 413.05C273.57 416.48 270.78 419.27 267.35 419.27C263.92 419.27 261.14 416.48 261.14 413.05C261.14 409.62 263.92 406.84 267.35 406.84C270.78 406.84 273.57 409.62 273.57 413.05Z" id="bcUeKhehn"></path><path d="M387.08 398.73C387.08 400.52 385.63 401.97 383.84 401.97C382.05 401.97 380.6 400.52 380.6 398.73C380.6 396.94 382.05 395.49 383.84 395.49C385.63 395.49 387.08 396.94 387.08 398.73Z" id="dYFogZkhC"></path><path d="M208.16 305.22C208.16 307.01 206.7 308.46 204.89 308.46C203.08 308.46 201.62 307.01 201.62 305.22C201.62 303.43 203.08 301.97 204.89 301.97C206.7 301.97 208.16 303.43 208.16 305.22Z" id="bX11B5vlf"></path></defs><g><g><g><use xlink:href="#aadHAsone" opacity="1" fill="#010101" fill-opacity="1"></use></g><g><g><use xlink:href="#b1eiEUxWE" opacity="1" fill-opacity="0" stroke="#000000" stroke-width="1" stroke-opacity="1"></use></g></g><g><use xlink:href="#e3QESdFYHN" opacity="1" fill="#010101" fill-opacity="1"></use></g><g><use xlink:href="#lpcZqyrmA" opacity="1" fill="#010101" fill-opacity="1"></use></g><g><use xlink:href="#a7EsrkKNUO" opacity="1" fill="#010101" fill-opacity="1"></use></g><g><use xlink:href="#a6GM2Wbs9" opacity="1" fill="#010101" fill-opacity="1"></use></g><g><use xlink:href="#a1P1QQYJcL" opacity="1" fill="#010101" fill-opacity="1"></use></g><g><use xlink:href="#h4tZvv7AGG" opacity="1" fill="#010101" fill-opacity="1"></use></g><g><use xlink:href="#aT9Q7omQB" opacity="1" fill="#010101" fill-opacity="1"></use></g><g><g><use xlink:href="#dAsk1dhdK" opacity="1" fill-opacity="0" stroke="#060600" stroke-width="1" stroke-opacity="1"></use></g></g><g><g><use xlink:href="#allUlmmAD" opacity="1" fill-opacity="0" stroke="#060600" stroke-width="1" stroke-opacity="1"></use></g></g><g><use xlink:href="#c2g8jVpwz8" opacity="1" fill="#a0a0a0" fill-opacity="1"></use></g><g><use xlink:href="#c5faQiuoM" opacity="1" fill="#a0a0a0" fill-opacity="1"></use></g><g><use xlink:href="#b2SfbxHDwx" opacity="1" fill="#a0a0a0" fill-opacity="1"></use></g><g><use xlink:href="#a2oYirCc6M" opacity="1" fill="#a0a0a0" fill-opacity="1"></use></g><g><use xlink:href="#bmMvLFjKs" opacity="1" fill="#a0a0a0" fill-opacity="1"></use></g><g><use xlink:href="#a4DeaMoYG" opacity="1" fill="#a0a0a0" fill-opacity="1"></use></g><g><use xlink:href="#bcUeKhehn" opacity="1" fill="#a0a0a0" fill-opacity="1"></use></g><g><use xlink:href="#dYFogZkhC" opacity="1" fill="#a0a0a0" fill-opacity="1"></use></g><g><use xlink:href="#bX11B5vlf" opacity="1" fill="#a0a0a0" fill-opacity="1"></use></g></g></g></svg>
