<?xml version="1.0" encoding="UTF-8" standalone="no"?>
<!DOCTYPE svg PUBLIC "-//W3C//DTD SVG 1.1//EN" "http://www.w3.org/Graphics/SVG/1.1/DTD/svg11.dtd">
<svg version="1.1" xmlns="http://www.w3.org/2000/svg" xmlns:xlink="http://www.w3.org/1999/xlink" preserveAspectRatio="xMidYMid meet" viewBox="0 0 100 60" width="100" height="60"><defs><path d="M85.85 10.04C91.07 13.76 96.25 21.77 96.25 26.67C96.25 32.9 91.3 45.35 83.3 49.47C75.13 53.67 63.78 49.47 51.23 49.47C38.81 49.47 24.75 57.28 16.6 53.15C8.45 49.03 6.22 32.96 6.22 26.67C6.22 21.58 7.69 10.84 16.6 6.64C25.51 2.44 29.75 7.33 51.23 6.64C72.72 5.95 77.69 4.22 85.85 10.04Z" id="c1LcrTs1md"></path><text id="c1ATGCxpNc" x="210.75" y="239.59" font-size="24" font-family="Paintball" font-weight="normal" font-style="normal" letter-spacing="0" alignment-baseline="before-edge" transform="matrix(1 0 0 1 -176.75383399629953 -226.15038560411304)" style="line-height:100%" xml:space="preserve" dominant-baseline="text-before-edge"><tspan x="210.75" dy="0em" alignment-baseline="before-edge" dominant-baseline="text-before-edge" text-anchor="start">OK</tspan></text><style id="titanonenormalnormal">
    @font-face {
    font-family: Paintball;
    font-weight: normal;
    src: url(http://fizzystack.web.fc2.com/paintball_web.woff);
    }
    </style><path d="" id="bEoAHMiSx"></path></defs><g><g><use xlink:href="#c1LcrTs1md" opacity="1" fill="#20cc0c" fill-opacity="1"></use></g><g id="a7YDcavKH"><use xlink:href="#c1ATGCxpNc" opacity="1" fill="#ffffff" fill-opacity="1"></use></g><g><g><use xlink:href="#bEoAHMiSx" opacity="1" fill-opacity="0" stroke="#000000" stroke-width="1" stroke-opacity="1"></use></g></g></g></svg>